<svg width="135" height="21" viewBox="0 0 135 21" fill="none" xmlns="http://www.w3.org/2000/svg">
<g clip-path="url(#clip0_90_523)">
<path d="M41.3165 4.90729H43.6889V16.9354H41.3165V4.90729Z" fill="#2A3362"/>
<path d="M52.871 12.6677C52.871 14.3281 51.7871 15.0739 50.3437 15.0739C48.9009 15.0739 47.9359 14.3281 47.9359 12.7522V8.46552H45.5635V13.2949C45.5635 15.699 47.0937 17.1054 49.6388 17.1054C51.2379 17.1054 52.1315 16.5249 52.7315 15.8689H52.8694L53.0758 16.9369H55.2579V8.46552H52.871V12.6677Z" fill="#2A3362"/>
<path d="M76.1439 15.2592C74.4073 15.2592 73.428 14.48 73.2738 13.3456H80.8038C80.8382 13.1099 80.8551 12.8717 80.8551 12.6329C80.839 9.5856 78.4988 8.29553 75.9952 8.29553C73.0897 8.29553 70.9052 10.0082 70.9052 12.7697C70.9052 15.3943 73.0039 17.1055 76.1501 17.1055C78.782 17.1055 80.5337 15.9546 80.8964 14.1914H78.5518C78.2589 14.8866 77.4167 15.2593 76.144 15.2593L76.1439 15.2592ZM75.9966 10.1434C77.5107 10.1434 78.3867 10.8032 78.5247 11.7396H73.3251C73.5474 10.8425 74.4248 10.1434 75.9888 10.1434H75.9965H75.9966Z" fill="#2A3362"/>
<path d="M84.8858 9.68165H84.7385L84.5144 8.461H82.3584V16.937H84.7308V13.2951C84.7308 11.6505 85.6925 10.7367 87.4819 10.7367C87.8074 10.7323 88.1316 10.7601 88.4507 10.8207V8.46565H88.1193C86.5378 8.46565 85.556 8.78757 84.8856 9.68165H84.8858Z" fill="#2A3362"/>
<path d="M100.1 14.2933H99.9633L97.9336 8.9909H95.4922L93.4979 14.2774H93.3438L91.4523 8.46552H89.096L92.0016 16.9369H94.5818L96.645 11.5315H96.7824L98.8111 16.9369H101.407L104.314 8.46552H101.957L100.1 14.2933Z" fill="#2A3362"/>
<path d="M113.757 14.47V11.6345C113.757 9.33016 111.778 8.297 109.319 8.297C106.707 8.297 105.073 9.51752 104.849 11.3443H107.222C107.394 10.5478 108.082 10.1078 109.319 10.1078C110.556 10.1078 111.381 10.565 111.381 11.4969V11.7131L107.512 12.0032C105.724 12.1393 104.42 12.9192 104.42 14.5788C104.42 16.2899 105.916 17.1024 108.116 17.1024C109.892 17.1024 110.974 16.615 111.637 15.8788H111.755C112.127 16.7065 112.883 16.9339 113.704 16.9339H114.701V15.2084H114.477C113.979 15.2084 113.756 14.972 113.756 14.4702L113.757 14.47ZM111.383 13.5721C111.383 14.9113 109.763 15.3505 108.374 15.3505C107.428 15.3505 106.81 15.1139 106.81 14.47C106.81 13.8896 107.343 13.6069 108.135 13.5382L111.384 13.3016L111.383 13.5721Z" fill="#2A3362"/>
<path d="M122.528 8.46552L119.759 14.5993H119.604L116.802 8.46552H114.239L118.245 16.9369H121.083L125.071 8.46552H122.528Z" fill="#2A3362"/>
<path d="M132.655 14.1913C132.361 14.8864 131.52 15.2592 130.248 15.2592C128.511 15.2592 127.532 14.48 127.377 13.3456H134.907C134.942 13.1099 134.959 12.8717 134.959 12.6329C134.943 9.5856 132.602 8.29553 130.099 8.29553C127.193 8.29553 125.01 10.0082 125.01 12.7697C125.01 15.3943 127.107 17.1055 130.253 17.1055C132.885 17.1055 134.637 15.9546 135 14.1914H132.655V14.1913ZM130.093 10.1434C131.607 10.1434 132.483 10.8032 132.622 11.7396H127.423C127.648 10.8425 128.522 10.1434 130.087 10.1434H130.093Z" fill="#2A3362"/>
<path d="M37.4606 7.84118C37.4606 7.09612 37.9937 6.77495 38.6819 6.77495C39.0017 6.77785 39.3201 6.82337 39.6275 6.91013L40.0234 5.2149C39.4489 5.01459 38.8446 4.91197 38.2357 4.91034C36.4814 4.91034 35.0723 5.8263 35.0723 7.72248V8.4654H33.0251V10.3216H35.0723V16.9366H37.4608V10.32H40.1354V8.46528H37.4608V7.84093L37.4606 7.84118Z" fill="#2A3362"/>
<path d="M60.4936 6.07727H58.2846L58.1612 8.46551H56.2934V10.3217H58.1168V14.4972C58.1168 15.9194 58.8532 17.1091 61.0622 17.1091C61.635 17.1091 62.2058 17.047 62.7648 16.924V15.1404C62.4428 15.2115 62.1137 15.2515 61.7838 15.259C60.598 15.259 60.4953 14.5992 60.4953 14.0898V10.317H62.8516V8.46551H60.4936V6.07727Z" fill="#2A3362"/>
<path d="M67.9436 6.07727H65.7422L65.619 8.46551H63.7465V10.3217H65.5698V14.4972C65.5698 15.9194 66.3062 17.1091 68.5152 17.1091C69.0867 17.1076 69.6564 17.0441 70.2134 16.9194V15.1404C69.8911 15.2115 69.563 15.2515 69.2323 15.259C68.0474 15.259 67.9436 14.5992 67.9436 14.0898V10.317H70.3076V8.46551H67.9436V6.07727Z" fill="#2A3362"/>
<path d="M0 4.58705C0 3.22745 0.403544 2.06665 1.25019 1.23218L2.72283 2.6832C1.08365 4.29242 2.51557 9.29549 7.18236 13.8988C11.849 18.5014 16.9298 19.9101 18.568 18.2981L20.0406 19.7492C17.2778 22.4714 10.9844 20.5398 5.71738 15.3484C2.06328 11.7465 0 7.66012 0 4.58718V4.58705Z" fill="#009A46"/>
<path d="M9.28712 21C7.90713 21 6.72905 20.6024 5.88074 19.7681L7.35338 18.317C8.98938 19.9291 14.067 18.5188 18.7384 13.917C23.4095 9.31571 24.8385 4.31264 23.2024 2.70066L24.675 1.24963C27.4393 3.97186 25.4772 10.1722 20.2078 15.3626C16.5529 18.9684 12.4057 21 9.28699 21H9.28712Z" fill="#FF5805"/>
<path d="M20.6957 13.2859C19.8015 10.7495 17.9759 8.03935 15.5529 5.65351C10.285 0.461308 3.99229 -1.47134 1.22951 1.25265C1.034 1.44693 1.20335 1.92755 1.60996 2.32718C2.01644 2.72782 2.50357 2.8933 2.69986 2.70066C4.33751 1.08855 9.41512 2.49883 14.0847 7.10139C16.2937 9.27798 17.9406 11.7086 18.7336 13.9578C19.4293 15.9303 19.361 17.5205 18.5511 18.3185C18.3541 18.5111 18.5251 18.9934 18.93 19.3923C19.3351 19.7914 19.8237 19.9592 20.0216 19.7649C21.4368 18.3704 21.6767 16.0662 20.6957 13.2857V13.2859Z" fill="#F5AFCB"/>
<path d="M24.672 1.25268C23.254 -0.144777 20.9183 -0.381438 18.0933 0.585954C15.5209 1.4657 12.7687 3.26668 10.3473 5.65202C5.07926 10.8426 3.11821 17.0428 5.88086 19.7667C6.07804 19.9593 6.56581 19.7932 6.97152 19.3939C7.378 18.9951 7.54749 18.5129 7.35044 18.3186C5.70984 16.7065 7.1456 11.7033 11.817 7.0999C14.026 4.92331 16.4926 3.30139 18.7754 2.51923C20.7771 1.83603 22.391 1.90104 23.2026 2.69917C23.3981 2.89182 23.8874 2.72571 24.2926 2.3252C24.6976 1.92443 24.8678 1.44545 24.6722 1.2528L24.672 1.25268Z" fill="#FF9B00"/>
</g>
<defs>
<clipPath id="clip0_90_523">
<rect width="135" height="21" fill="white"/>
</clipPath>
</defs>
</svg>
