<svg width="30" height="29" viewBox="0 0 30 29" fill="none" xmlns="http://www.w3.org/2000/svg">
<path d="M7.03857 26.338H23.0108" stroke="#030303" stroke-width="3" stroke-linecap="round" stroke-linejoin="round"/>
<path d="M15.025 15.6898C16.9852 15.6898 18.5744 14.1007 18.5744 12.1404C18.5744 10.1802 16.9852 8.59106 15.025 8.59106C13.0647 8.59106 11.4756 10.1802 11.4756 12.1404C11.4756 14.1007 13.0647 15.6898 15.025 15.6898Z" stroke="#030303" stroke-width="3" stroke-linecap="round" stroke-linejoin="round"/>
<path d="M23.8983 12.1405C23.8983 20.1267 15.0248 26.3381 15.0248 26.3381C15.0248 26.3381 6.15137 20.1267 6.15137 12.1405C6.15137 9.78716 7.08625 7.53016 8.75034 5.86607C10.4144 4.20197 12.6714 3.26709 15.0248 3.26709C17.3782 3.26709 19.6352 4.20197 21.2993 5.86607C22.9634 7.53016 23.8983 9.78716 23.8983 12.1405V12.1405Z" stroke="#030303" stroke-width="3" stroke-linecap="round" stroke-linejoin="round"/>
</svg>
