<svg width="26" height="26" viewBox="0 0 26 26" fill="none" xmlns="http://www.w3.org/2000/svg">
<path d="M25 24.25H19C21.7457 22.7857 23.861 20.3678 24.9475 17.4519C26.0341 14.5361 26.0167 11.3235 24.8988 8.41954C23.7809 5.51555 21.6396 3.12063 18.8784 1.68598C16.1171 0.251329 12.9265 -0.124001 9.9077 0.630702C6.88889 1.38541 4.25028 3.21804 2.489 5.78333C0.727715 8.34861 -0.0346408 11.4694 0.34556 14.5579C0.72576 17.6463 2.22227 20.489 4.55314 22.5505C6.884 24.6121 9.88831 25.75 13 25.75H25C25.1989 25.75 25.3897 25.671 25.5304 25.5303C25.671 25.3897 25.75 25.1989 25.75 25C25.75 24.8011 25.671 24.6103 25.5304 24.4697C25.3897 24.329 25.1989 24.25 25 24.25ZM1.75003 13C1.75003 10.775 2.40983 8.59991 3.646 6.74985C4.88216 4.8998 6.63917 3.45786 8.69484 2.60637C10.7505 1.75489 13.0125 1.5321 15.1948 1.96618C17.3771 2.40027 19.3816 3.47173 20.955 5.04507C22.5283 6.61841 23.5998 8.62297 24.0339 10.8053C24.4679 12.9875 24.2452 15.2495 23.3937 17.3052C22.5422 19.3609 21.1003 21.1179 19.2502 22.3541C17.4001 23.5902 15.2251 24.25 13 24.25C10.0174 24.2467 7.1578 23.0604 5.04873 20.9513C2.93967 18.8422 1.75334 15.9827 1.75003 13ZM13 9.75002C13.5439 9.75002 14.0756 9.58873 14.5279 9.28656C14.9801 8.98439 15.3326 8.5549 15.5407 8.0524C15.7488 7.5499 15.8033 6.99697 15.6972 6.46352C15.5911 5.93007 15.3292 5.44007 14.9446 5.05548C14.56 4.67088 14.07 4.40897 13.5365 4.30286C13.0031 4.19675 12.4501 4.25121 11.9477 4.45935C11.4452 4.66749 11.0157 5.01997 10.7135 5.4722C10.4113 5.92444 10.25 6.45612 10.25 7.00002C10.25 7.72936 10.5398 8.42884 11.0555 8.94456C11.5712 9.46029 12.2707 9.75002 13 9.75002ZM13 5.75002C13.2473 5.75002 13.4889 5.82333 13.6945 5.96068C13.9001 6.09803 14.0603 6.29326 14.1549 6.52166C14.2495 6.75007 14.2742 7.00141 14.226 7.24388C14.1778 7.48636 14.0587 7.70909 13.8839 7.8839C13.7091 8.05872 13.4864 8.17777 13.2439 8.226C13.0014 8.27423 12.7501 8.24948 12.5217 8.15487C12.2933 8.06026 12.098 7.90004 11.9607 7.69448C11.8233 7.48892 11.75 7.24725 11.75 7.00002C11.75 6.6685 11.8817 6.35056 12.1161 6.11614C12.3506 5.88172 12.6685 5.75002 13 5.75002ZM15.75 19C15.75 18.4561 15.5887 17.9244 15.2866 17.4722C14.9844 17.02 14.5549 16.6675 14.0524 16.4594C13.5499 16.2512 12.997 16.1968 12.4635 16.3029C11.9301 16.409 11.4401 16.6709 11.0555 17.0555C10.6709 17.4401 10.409 17.9301 10.3029 18.4635C10.1968 18.997 10.2512 19.5499 10.4594 20.0524C10.6675 20.5549 11.02 20.9844 11.4722 21.2866C11.9244 21.5887 12.4561 21.75 13 21.75C13.7294 21.75 14.4289 21.4603 14.9446 20.9446C15.4603 20.4288 15.75 19.7294 15.75 19ZM11.75 19C11.75 18.7528 11.8233 18.5111 11.9607 18.3056C12.098 18.1 12.2933 17.9398 12.5217 17.8452C12.7501 17.7506 13.0014 17.7258 13.2439 17.774C13.4864 17.8223 13.7091 17.9413 13.8839 18.1161C14.0587 18.291 14.1778 18.5137 14.226 18.7562C14.2742 18.9986 14.2495 19.25 14.1549 19.4784C14.0603 19.7068 13.9001 19.902 13.6945 20.0394C13.4889 20.1767 13.2473 20.25 13 20.25C12.6685 20.25 12.3506 20.1183 12.1161 19.8839C11.8817 19.6495 11.75 19.3315 11.75 19ZM19 15.75C19.5439 15.75 20.0756 15.5887 20.5278 15.2866C20.9801 14.9844 21.3326 14.5549 21.5407 14.0524C21.7488 13.5499 21.8033 12.997 21.6972 12.4635C21.5911 11.9301 21.3292 11.4401 20.9446 11.0555C20.56 10.6709 20.07 10.409 19.5365 10.3029C19.0031 10.1967 18.4501 10.2512 17.9477 10.4594C17.4452 10.6675 17.0157 11.02 16.7135 11.4722C16.4113 11.9244 16.25 12.4561 16.25 13C16.25 13.7294 16.5398 14.4288 17.0555 14.9446C17.5712 15.4603 18.2707 15.75 19 15.75ZM19 11.75C19.2473 11.75 19.4889 11.8233 19.6945 11.9607C19.9001 12.098 20.0603 12.2933 20.1549 12.5217C20.2495 12.7501 20.2742 13.0014 20.226 13.2439C20.1778 13.4864 20.0587 13.7091 19.8839 13.8839C19.7091 14.0587 19.4864 14.1778 19.2439 14.226C19.0014 14.2742 18.7501 14.2495 18.5217 14.1549C18.2933 14.0603 18.098 13.9 17.9607 13.6945C17.8233 13.4889 17.75 13.2472 17.75 13C17.75 12.6685 17.8817 12.3506 18.1161 12.1161C18.3506 11.8817 18.6685 11.75 19 11.75ZM7.00003 10.25C6.45613 10.25 5.92445 10.4113 5.47221 10.7135C5.01998 11.0157 4.6675 11.4451 4.45936 11.9476C4.25122 12.4501 4.19676 13.0031 4.30287 13.5365C4.40898 14.07 4.67089 14.56 5.05549 14.9446C5.44008 15.3292 5.93009 15.5911 6.46353 15.6972C6.99698 15.8033 7.54991 15.7488 8.05241 15.5407C8.55491 15.3325 8.9844 14.9801 9.28657 14.5278C9.58875 14.0756 9.75003 13.5439 9.75003 13C9.75003 12.2707 9.4603 11.5712 8.94458 11.0555C8.42885 10.5398 7.72938 10.25 7.00003 10.25ZM7.00003 14.25C6.7528 14.25 6.51113 14.1767 6.30557 14.0394C6.10001 13.902 5.93979 13.7068 5.84518 13.4784C5.75057 13.25 5.72582 12.9986 5.77405 12.7562C5.82228 12.5137 5.94133 12.291 6.11615 12.1161C6.29096 11.9413 6.51369 11.8223 6.75617 11.774C6.99864 11.7258 7.24998 11.7506 7.47839 11.8452C7.70679 11.9398 7.90202 12.1 8.03937 12.3056C8.17672 12.5111 8.25003 12.7528 8.25003 13C8.25003 13.3315 8.11833 13.6495 7.88391 13.8839C7.64949 14.1183 7.33155 14.25 7.00003 14.25Z" fill="black" fill-opacity="0.4"/>
</svg>
