<svg width="30" height="30" viewBox="0 0 30 30" fill="none" xmlns="http://www.w3.org/2000/svg">
<path d="M27.2727 3.75H2.72727C1.22104 3.75 0 4.97104 0 6.47727V22.8409C0 24.3472 1.22104 25.5682 2.72727 25.5682H27.2727C28.779 25.5682 30 24.3472 30 22.8409V6.47727C30 4.97104 28.779 3.75 27.2727 3.75Z" fill="url(#paint0_radial_65_421)"/>
<g style="mix-blend-mode:soft-light">
<g style="mix-blend-mode:soft-light">
<path d="M30 7.84094H0V13.2955H30V7.84094Z" fill="black"/>
</g>
</g>
<g style="mix-blend-mode:soft-light">
<g style="mix-blend-mode:soft-light">
<path d="M25.227 18.75H21.136C20.7595 18.75 20.4543 19.0553 20.4543 19.4318V20.7954C20.4543 21.172 20.7595 21.4773 21.136 21.4773H25.227C25.6035 21.4773 25.9088 21.172 25.9088 20.7954V19.4318C25.9088 19.0553 25.6035 18.75 25.227 18.75Z" fill="white"/>
</g>
</g>
<g style="mix-blend-mode:soft-light">
<g style="mix-blend-mode:soft-light">
<path fill-rule="evenodd" clip-rule="evenodd" d="M7.50008 21.9175C7.37211 22.0626 7.23032 22.1926 7.07468 22.3075C6.91905 22.4224 6.75307 22.5198 6.57674 22.5994C6.4004 22.6789 6.21767 22.739 6.02853 22.7798C5.8394 22.8205 5.64809 22.8409 5.45463 22.8409C5.36531 22.8409 5.2762 22.8364 5.18732 22.8277C5.09842 22.8189 5.01018 22.8059 4.92257 22.7884C4.83496 22.771 4.74842 22.7494 4.66294 22.7234C4.57747 22.6975 4.49347 22.6674 4.41094 22.6333C4.32842 22.5991 4.24777 22.5609 4.16901 22.5188C4.09023 22.4767 4.0137 22.4309 3.93944 22.3812C3.86517 22.3316 3.79351 22.2784 3.72446 22.2218C3.65542 22.1651 3.58931 22.1052 3.52615 22.042C3.46299 21.9789 3.40309 21.9128 3.34642 21.8437C3.28975 21.7747 3.23661 21.703 3.18698 21.6288C3.13736 21.5545 3.09149 21.478 3.04939 21.3992C3.00728 21.3204 2.96914 21.2398 2.93496 21.1573C2.90077 21.0747 2.87072 20.9907 2.84479 20.9053C2.81887 20.8198 2.79718 20.7333 2.77976 20.6456C2.76233 20.558 2.74925 20.4698 2.74049 20.3809C2.73173 20.292 2.72736 20.2029 2.72736 20.1136C2.72736 20.0242 2.73173 19.9352 2.74049 19.8463C2.74925 19.7573 2.76233 19.6691 2.77976 19.5815C2.79718 19.4939 2.81887 19.4074 2.84479 19.3219C2.87072 19.2364 2.90077 19.1524 2.93496 19.0699C2.96914 18.9874 3.00728 18.9067 3.04939 18.828C3.09149 18.7491 3.13736 18.6726 3.18698 18.5984C3.23661 18.5241 3.28975 18.4524 3.34642 18.3834C3.40309 18.3143 3.46299 18.2482 3.52615 18.1851C3.58931 18.1219 3.65542 18.062 3.72446 18.0053C3.79351 17.9487 3.86517 17.8955 3.93944 17.8459C4.0137 17.7963 4.09023 17.7504 4.16901 17.7083C4.24777 17.6662 4.32842 17.6281 4.41094 17.5939C4.49347 17.5597 4.57747 17.5296 4.66294 17.5038C4.74842 17.4778 4.83496 17.4561 4.92257 17.4387C5.01018 17.4213 5.09842 17.4082 5.18732 17.3994C5.2762 17.3907 5.36531 17.3863 5.45463 17.3863C5.64809 17.3863 5.8394 17.4066 6.02853 17.4473C6.21767 17.4881 6.4004 17.5482 6.57674 17.6278C6.75307 17.7075 6.91905 17.8047 7.07468 17.9196C7.23032 18.0346 7.37211 18.1645 7.50008 18.3096C7.62804 18.1645 7.76985 18.0346 7.92548 17.9196C8.08112 17.8047 8.2471 17.7075 8.42343 17.6278C8.59976 17.5482 8.7825 17.4881 8.97164 17.4473C9.16077 17.4066 9.35207 17.3863 9.54553 17.3863C9.63487 17.3863 9.72394 17.3907 9.81281 17.3994C9.90178 17.4082 9.99 17.4213 10.0776 17.4387C10.1652 17.4561 10.2517 17.4778 10.3372 17.5038C10.4227 17.5296 10.5067 17.5597 10.5892 17.5939C10.6717 17.6281 10.7524 17.6662 10.8311 17.7083C10.91 17.7504 10.9865 17.7963 11.0607 17.8459C11.135 17.8955 11.2067 17.9487 11.2757 18.0053C11.3448 18.062 11.4109 18.1219 11.474 18.1851C11.5372 18.2482 11.5971 18.3143 11.6538 18.3834C11.7104 18.4524 11.7636 18.5241 11.8132 18.5984C11.8628 18.6726 11.9087 18.7491 11.9508 18.828C11.9929 18.9067 12.031 18.9874 12.0652 19.0699C12.0994 19.1524 12.1295 19.2364 12.1553 19.3219C12.1813 19.4074 12.203 19.4939 12.2204 19.5815C12.2378 19.6691 12.251 19.7573 12.2597 19.8463C12.2684 19.9352 12.2728 20.0242 12.2728 20.1136C12.2728 20.2029 12.2684 20.292 12.2597 20.3809C12.251 20.4698 12.2378 20.558 12.2204 20.6456C12.203 20.7333 12.1813 20.8198 12.1553 20.9053C12.1295 20.9907 12.0994 21.0747 12.0652 21.1573C12.031 21.2398 11.9929 21.3204 11.9508 21.3992C11.9087 21.478 11.8628 21.5545 11.8132 21.6288C11.7636 21.703 11.7104 21.7747 11.6538 21.8437C11.5971 21.9128 11.5372 21.9789 11.474 22.042C11.4109 22.1052 11.3448 22.1651 11.2757 22.2218C11.2067 22.2784 11.135 22.3316 11.0607 22.3812C10.9865 22.4309 10.91 22.4767 10.8311 22.5188C10.7524 22.5609 10.6717 22.5991 10.5892 22.6333C10.5067 22.6674 10.4227 22.6975 10.3372 22.7234C10.2517 22.7494 10.1652 22.771 10.0776 22.7884C9.99 22.8059 9.90178 22.8189 9.81281 22.8277C9.72394 22.8364 9.63487 22.8409 9.54553 22.8409C9.35207 22.8409 9.16077 22.8205 8.97164 22.7798C8.7825 22.739 8.59976 22.6789 8.42343 22.5994C8.2471 22.5198 8.08112 22.4224 7.92548 22.3075C7.76985 22.1926 7.62804 22.0626 7.50008 21.9175Z" fill="white"/>
</g>
</g>
<defs>
<radialGradient id="paint0_radial_65_421" cx="0" cy="0" r="1" gradientUnits="userSpaceOnUse" gradientTransform="translate(1.02573 25.5682) rotate(143.02) scale(36.2704 49.8718)">
<stop stop-color="#FF7D05"/>
<stop offset="1" stop-color="#F8F038"/>
</radialGradient>
</defs>
</svg>
