<svg width="52" height="52" viewBox="0 0 52 52" fill="none" xmlns="http://www.w3.org/2000/svg">
<path d="M40.6251 29.25H25.0454L25.5227 28.7726L29.5974 24.698C31.2431 25.5268 33.0564 25.9686 34.899 25.9898C36.7536 25.9947 38.5735 25.4872 40.1579 24.5233C44.976 21.6064 47.5577 14.8545 47.0641 6.46139C47.0409 6.06385 46.8725 5.68867 46.5909 5.40708C46.3093 5.12549 45.9342 4.95711 45.5366 4.93389C37.1435 4.44233 30.3916 7.02202 27.4747 11.8401C25.5735 14.9784 25.5247 18.7687 27.298 22.4026L24.3751 25.3256L21.8949 22.8455C23.1137 20.154 23.0263 17.3611 21.6126 15.0292C19.4046 11.375 14.3427 9.42702 8.07022 9.79467C7.67336 9.81832 7.29894 9.98663 7.01782 10.2677C6.7367 10.5489 6.56839 10.9233 6.54475 11.3201C6.17506 17.5906 8.12506 22.6525 11.7813 24.8625C13.0045 25.6094 14.4106 26.0031 15.8438 26C17.144 25.9871 18.4265 25.6969 19.6057 25.1489L22.0757 27.625L20.4507 29.25H11.3751C10.9441 29.25 10.5308 29.4212 10.226 29.7259C9.92126 30.0307 9.75006 30.444 9.75006 30.875C9.75006 31.306 9.92126 31.7193 10.226 32.024C10.5308 32.3288 10.9441 32.5 11.3751 32.5H13.323L16.0063 44.5798C16.1636 45.3033 16.5645 45.9509 17.1421 46.4142C17.7196 46.8775 18.4387 47.1284 19.1791 47.125H32.823C33.5634 47.1284 34.2825 46.8775 34.8601 46.4142C35.4376 45.9509 35.8386 45.3033 35.9958 44.5798L38.6791 32.5H40.6251C41.056 32.5 41.4694 32.3288 41.7741 32.024C42.0789 31.7193 42.2501 31.306 42.2501 30.875C42.2501 30.444 42.0789 30.0307 41.7741 29.7259C41.4694 29.4212 41.056 29.25 40.6251 29.25ZM30.2657 13.524C32.3904 10.0181 37.4238 8.03967 43.8751 8.12702C43.9583 14.5884 41.984 19.6198 38.478 21.7364C36.1401 23.1583 33.3187 23.0648 30.4993 21.4967C28.9291 18.6875 28.8438 15.862 30.2657 13.524ZM18.7099 21.9598C16.8412 22.9612 14.9907 23.008 13.4632 22.0817C11.1272 20.6659 9.78053 17.3286 9.75006 13C14.0787 13.0305 17.418 14.3772 18.8318 16.7131C19.758 18.2406 19.7032 20.0911 18.7099 21.9598ZM32.823 43.875H19.1791L16.6563 32.5H35.3438L32.823 43.875Z" fill="#12921F"/>
</svg>
